<svg width="753" height="559" viewBox="0 0 753 559" fill="none" xmlns="http://www.w3.org/2000/svg">
<g clip-path="url(#clip0_237_693)">
<path d="M44.1617 80.8671H0.349121L4.77184 58.8945H80.0272L81.8239 60.6797C81.8239 70.3614 57.4988 136.691 39.808 184.207C31.861 205.768 28.7512 216.755 28.7512 225.956C28.7512 237.354 36.6983 247.928 54.389 247.928C65.0314 247.928 76.9175 236.53 100.413 203.983L109.258 208.377L80.0961 247.928C65.9297 266.811 57.9828 274.296 49.1371 278.69H40.2918C22.6009 278.69 7.53601 264.614 7.53601 244.426C7.53601 238.247 8.84904 229.046 11.0604 220.669L44.1617 80.8671Z" fill="black"/>
<path d="M289.205 165.256C293.628 148.983 299.363 136.692 299.363 118.633C299.363 97.5529 283.469 80.8673 260.457 80.8673C233.506 80.8673 217.543 98.4457 189.694 168.758L146.365 278.622H119.829L168.479 80.8673H99.9954L104.418 58.8947H197.71L199.507 60.6798C199.507 69.4688 157.905 192.516 155.28 199.589H160.601L186.239 142.46C213.604 81.2791 243.665 54.5 281.672 54.5C316.156 54.5 331.22 78.2582 331.22 98.4456C331.22 121.311 322.79 138.408 309.521 171.436C294.457 208.378 291.416 215.862 291.416 225.956C291.416 237.354 294.94 247.928 312.631 247.928C323.274 247.928 335.16 236.53 358.655 203.983L367.501 208.378L338.338 247.928C324.172 266.811 316.225 274.296 307.379 278.69H298.534C280.843 278.69 270.201 264.614 270.201 244.427C270.201 238.247 271.514 229.046 273.725 220.669L289.205 165.256Z" fill="black"/>
<path d="M36.9735 542.642C34.3475 542.642 32.1362 543.533 29.9248 545.729L16.6567 558.5H14.86L0.278809 470.543L9.12422 466.147C10.4372 470.543 30.3395 545.248 103.798 545.248C134.757 545.248 148.025 532.067 148.025 510.094C148.025 452.966 33.0345 466.147 33.0345 391.441C33.0345 351.89 68.4163 329.917 102.07 329.917C137.452 329.917 145.399 345.71 156.94 345.71C159.565 345.71 161.777 344.817 163.988 342.62L177.256 329.849H179.053L193.634 417.74L184.789 422.134C183.476 417.74 161.363 343.032 106.493 343.032C81.7537 343.032 63.9935 356.216 63.9935 382.583C63.9935 439.712 174.561 430.923 174.561 496.841C174.561 539.069 139.18 558.365 102.001 558.365C60.8837 558.365 48.4451 542.57 36.9735 542.57V542.642Z" fill="black"/>
<path d="M260.807 356.281H216.994L221.417 334.309H296.603L298.4 336.094C298.4 345.775 274.075 412.105 256.384 459.621C248.437 481.181 245.327 492.17 245.327 501.368C245.327 512.766 253.274 523.341 270.965 523.341C281.607 523.341 293.493 511.943 316.989 479.399L325.834 483.791L296.672 523.341C282.506 542.223 274.558 549.711 265.713 554.103H256.868C239.177 554.103 224.112 540.027 224.112 519.84C224.112 513.662 225.425 504.459 227.636 496.08L260.807 356.281Z" fill="black"/>
<path d="M465.632 481.937L482.423 452.894L491.267 457.286L474.476 486.333C450.566 527.189 421.818 558.432 389.547 558.432C378.904 558.432 348.844 552.731 348.844 518.877C348.844 510.089 350.157 497.799 355.063 484.614L400.603 356.281H315.673L320.511 334.309H405.44L417.672 233.234H446.972L421.335 334.309H491.682L486.845 356.281H415.599L384.225 479.327C382.014 488.12 380.701 495.122 380.701 502.196C380.701 521.559 393.555 532.062 407.237 532.062C425.343 532.062 441.306 523.688 465.632 481.937Z" fill="black"/>
<path d="M743.435 479.327L752.279 483.723L723.117 523.274C708.951 542.156 701.003 549.639 692.159 554.036H683.311C665.623 554.036 654.978 539.96 654.978 519.768C654.978 512.766 656.293 506.588 659.404 497.799L690.363 413.409H685.04L659.404 470.538C631.968 531.648 601.906 558.428 563.828 558.428C529.349 558.428 514.282 534.672 514.282 514.481C514.282 491.616 521.329 475.826 533.771 441.493C542.201 418.627 553.255 390.474 566.044 356.211H470.333L475.169 334.238H587.19L588.987 336.023L555.399 447.672C550.563 463.946 546.141 480.632 546.141 494.294C546.141 515.376 562.518 532.062 585.047 532.062C611.997 532.062 627.96 514.481 655.811 444.171L699.139 334.307H725.675L689.394 482.895C687.598 489.488 684.972 499.581 684.972 510.156C684.972 518.945 689.394 523.341 697.342 523.341C707.983 523.341 719.871 511.943 743.367 479.394L743.435 479.327Z" fill="black"/>
</g>
<defs>
<clipPath id="clip0_237_693">
<rect width="752" height="558" fill="white" transform="translate(0.278809 0.5)"/>
</clipPath>
</defs>
</svg>
