<?xml version="1.0" encoding="UTF-8"?>
<svg id="Calque_1" xmlns="http://www.w3.org/2000/svg" version="1.1" viewBox="0 0 2359 3167">
  <!-- Generator: Adobe Illustrator 29.2.1, SVG Export Plug-In . SVG Version: 2.1.0 Build 116)  -->
  <defs>
    <style>
      .st0 {
        fill: #969696;
      }
    </style>
  </defs>
  <path class="st0" d="M517.2,605c-10.9-7.9-41.7-24.1-54.7-25.5-17.1-1.9-34.7,9.1-50.9-.4-7-14.7-82.4-97-81.1-103.3,2.2-11.2,13.4,1.2,16,3.6,34.1,32.1,45.2,84.6,109.9,62.6,30-10.2,97.6-53,118.1-75.9,46.8-52.3-58.8-149.3-101.4-177.4-6-3.9-54-31.5-57.3-32.1-11.7-2.2-53.1,2.3-66.5,4.6-39.7,6.8-121.7,45.6-157.7,23.2-4.5-2.8-53.7-74.6-60.5-85.3C95.4,142.4,68.6,80,30.1,24.6,25.1,17.4,18,.7,8.6,1.8v307.3l14.1,3.5c10.2,12.8-14.1,15.2-14.1,20.9v129.3l29.3-7.3c9.9,2.7,17,41.9,31.6,40.5l46-26.2-3.6-18.2c28.7,9.6,27.7-5.7,18-26.4-19.6-42.3-62-84.4-85-126.1-1.1-6.6,15.6-21,23.4-14.4l198.7,277.7c1.6,11.2-10.9,14.4-18.8,19.8-24.8-10.3-92.8-96.2-114.4-96.5-10.1-.1-103.9,53.1-109.7,61.3-1.7,2.4-3.7,4.4-3.4,7.6-.8,12.8,11.9,13.5,17.5,20.7,24.4,31.6,44.1,67.7,71.4,97.6l11.2,2.9,26.8-14.4c6.9,6.2-56.7,43.4-13.9,56.3l143-116.3c4.8-3.8,13.1-8.7,19.3-7.8,6.2.9,63.6,84.2,76,97.8,23,25.1,51.7,46.9,77.4,69.5-13.8,29.7-43.1-17.5-68.9,2.1l-89.9,76.3-22.3,42.9c-13.8,3.9-19-16.7-25.4-20.5-18.3-10.9-52.5,32.2-71.5,35.7,15,36.8,55.6,50,72.2,85.6,33.5-9.3,66.1,26.2,94.7,32.7,10.5,2.4,26.3-2.2,38.9,6l32.6,130.4c5.4-3.7,20.4-8.5,27.8-7.5,0-.3,4.7.5,3.8-5.4-2-12.6-12-24.9-7.2-39.1l70.9-15.5-20.2-78.3-75.1,14.7c7.5-17.2-18.5-28.1-19.7-32.2-1.8-6.6,17.3-20.6,11.5-31.3-9.8,1-13.3-4-19.7-7.7-6.9-4-14.7-6.1-19.8-13.2,8.6-3.2,16.7,7.9,19.8,9.4,29.8,14.7,59.4,29.6,89,44.7,12.7-10.2,39.8-58.6,55.7-56.2,3.3.5,5.7,19.3,23.4,15.5,3.5-6.6,33.9-33.6,34.6-35.9.6-1.8,1.3-9.3-2-9.2-6.1,8.8-27.9,39.5-38.8,36.9l-124.3-97c-5.3-9.9,24.1-30.9,28.5-41.4l41.3,22.8c2.2-12.8-13.8-12.2-18.5-16.2-13.2-11.3-21.7-24.7,4.1-24.1,86.3,75.8,178.1,146.3,251.8,233.8-4.9,14.1-5.4,52-19.1,59.4l-266,69.5c1.8,10.2-.9,20.3,8,30,7.8-3.9,46.6-8.5,60.4-12.3,68-18.4,135.5-38.7,204.2-54.9,12.7-.3,55.8,26.1,57.3,39.3-.5,27.8-44.8,51.2-50.1,72.9-2,8.1,2.3,14,.8,22.6-10.3,58.8-73.3,156.4-91.9,221-1.5,5.1-2.8,9.7-1.9,15,26.1,0,24.1-38.2,34.6-55.3,2.1-3.4-.3-5.6,6.8-4.7l148.6,75.5c8.9,13.2-48.3,129.4-51.3,153-8.3,5.7-110.1-42.7-130.9-33.6l3.9,20.7,108.5,32.6,6.7,8.3-163.4,387.6c-9.4,5.5-106.5-28.9-121.3-36.4-47.5-24-79.5-67.2-123.2-93.7-20.5-12.4-49.4-23.6-72.8-30.7l79.3-214.6c23.9-24.8,77.1,24.1,92.7-7.5,18.6-37.7-86.8-49.9-116-26.8-6,4.7-10.8,15.5-17.9,20.6l-78.2,216.6-217.5-15.1c-3.7-36.9,3.7-73.3,3.6-110.2,0-10.7-4.3-19.9-4.3-29.6-.1-47-7.9-100.3,24-138.9l43.8-1.8,3.9-30v58.1c0,18.4,65.7,5.2,77.5,5.3,25.2.3,61.8,12.6,85.4-1.6v-84.3c-38.9,0-78.7.2-117.4-3.6-11.3-1.1-18.3-7-31.5-7.9-22.4-1.4-58.1,5.2-73.8,20.7-4.2,4.1-27.7,38.9-27.7,41.4v316.6l143,3.7,3.9,78.7H52.2c-.8,28,1,56.4.2,84.5-.6,18.6-12.4,45.1,1.8,61.7h95.4l6-5.6v-65.6c17.8,6,33.1,6.1,39.8-13.3l-8-136.6c41.1,4.4,82.8,12.8,119.2,31.8,54.7,28.4,96.3,79.7,152.2,107.5,39.2,19.5,82.6,26.5,124,40.4l9.8,183.8h-145c-10.3,7-12.6,20.5-13.8,31.9-4.1,38,4,78.2,4.1,116.3,0,21.1-12.9,93.1,1.7,106.7,16.3,15.2,29.9-5.5,29.9-20.7v-61.8c18.8-5,88.9,9.6,97.4-3.7l8.2-123.9-59.9-3.6-41.7-7.5h123.2l9.8,131.4c3.9,11.3,11.8,12.9,23.6,10.7,6.8-2.2,8.7-18.3,8.9-24.6,2.3-80.3-15.2-162.5-18.5-242.8-1.1-25.5,1.1-51.4.2-77,51.8,7.3,98.3,46.7,149.4,52.1,71.7,7.6,112.7-21.1,173.7-45.2,84.2-33.3,136.4-45.7,176.5-133.3,8.8-19.1,45.6-136.3,52.6-139.6,3.4-13.8-21.7-9.4-23.8-11.2,2.4-11.4,6.1-7.5,3.9-18.7h-8c.2,7.3-2.7,10-4,15-7.1,29.4-20.5,58.1-31.8,86.2-6.8,17-11.7,31.7-19.9,48.7-5.8,12.1-8.6,18.2-15.9,30-2.8,4.5-3.5,9.3-8,15-9.5,12.3-19.9,20.2-31.8,30-4.9,4-10.6,7.7-15.9,11.3-5.9,4-5.5,5.8-15.9,11.2-5.7,2.9-8.4,2.4-11.9,3.7-7.3,2.8-10.9,5.2-19.9,7.5-8.2,2.1-20.7,7.2-27.8,7.5-3.6,6.3-11.5,5.4-15.9,7.5-15.4,7.5-27.3,12.4-43.7,18.7-2.3.9-4.8,2.6-8,3.7-33.9,12.6-41,16.5-79.5,18.8-.8,0-2.7,3.4-6,3.5-3.2,0-5.2-3.4-6-3.5-5.1-.3-11.2.7-15.9,0-6.6-1-7.5-3.6-8-3.7-14.7-3.6-14.3,2.5-27.8-11.3-17-3.2-32-12.9-47.7-18.7-7.4-2.7-15.8-4.4-23.8-7.5-3.4-1.3-6.4-3.2-8-3.7-3.4-1.2-6.6-1.6-11.9-3.7-4.6-1.8-10.9-2.5-15.9-3.8-2.5-5.5,3.3-8.9,4-11.2,1.3-4.1,2.5-7.3,4-11.2,1.4-3.7,3.2-5.7,4-7.5,2.6-6.2,5.3-12.7,8-18.8,1.4-3.1,3-5.3,4-7.5,5.9-12.8,8.4-20.4,15.9-33.7,2.3-4,1.2-11.6,8-15,.5-12.1,8.6-18.4,11.9-26.2,1.4-3.2,3.1-5.5,4-7.5,5.4-12.4,10.5-25,15.9-37.5,3.7-8.4,2.9-19.6,11.9-26.2,3.8-16.8,10-26.3,15.9-41.2,3.2-8.2,7.7-10.6,8-11.3,1.5-3.9,1.2-11.2,4-18.7,1.4-3.6,3.5-6.3,4-7.5,2.7-7.3,5.1-15,8-22.5,2.5-6.8,5.8-13,8-18.8,2.8-7.3,5.1-15,8-22.5,3.8-10.1,8.1-20.1,11.9-30,2.8-7.3,5-15,8-22.5,4.3-11,7.6-22.6,11.9-33.7,5.3-13.7,10.5-27.5,15.9-41.2,3.3-8.2,7.7-10.6,8-11.2,2.5-6.3,3.1-18.1,8-30,3.3-8.1,7.7-10.6,8-11.2,1.5-3.6.8-11.1,4-18.8s7.6-10.6,8-11.2c1.5-3.4.5-11,4-18.8,10.2-22.5,10.8-21.4,31.8-33.7,2.9-1.7,4.9-2.5,8-3.7,4.8-2,5.7-6.7,15.9-7.5,2.6-.2,5.3,0,8,0,2.6-5.9,17.2-5.9,19.9,0,2.5-.4,5.4.3,8,0l8,3.7c4.2-.2,8.3.1,12.2,1.6,3.4,1.1,5.7,3.1,7.7,5.8,11.6-4.2,21.4-12.4,27.8-22.5-15.3-7.2-24.8-18.8-42.7-21.6-37.2-5.9-78.7.3-108,23.7-9.5,7.6-22.7,31.7-29.4,31.2l-149-75.2c-2.6-8.5-.2-16.8,2.1-25,6.7-24.9,44.7-113.3,57.8-136.6,10.5-18.5,42.3-37.2,56.4-59.3,39.2-61.4-11.4-84.8-63.5-108.3-1.9-2.9,5.1-32.2,6.4-39.3.7-3.9-2.9-12.5,5.8-9.4,23.1,8.2,27.7,35.8,40,52.2,18.6,24.8,46,36.6,77.2,41.5-6.5,16-60.5,59-50.9,74.2l39,29h8c0,0,53.4-62.3,53.4-62.3,3.6-4.2,5.3-3.2,9.9-1.7,8.1,2.7,44.1,29.1,57.1,36.4,10.1,5.6,45.9,18.9,50.4,23.7,5,5.3,2.4,12.4,5.1,15.8,67.5,87.3,261.5,183.6,356.5,265.2,15.3,13.2,28.7,32.3,47.6,39.5l-93.3,138.5c-.9-23.3-30.4-41.8-43.7-14.9-8.1,16.5,17.5,37.8,33.7,26.1-13.4,54.3-73.8,41.2-119.2,41.2-.5,3-4.2,7.3-4,11.2,1-.4,2.6.2,4,0,53.2-7.5,79.8,19.1,120.1-31,38.5-47.7,65-111.1,106.2-158.4,10.1-5.3,32,24.6,31.9,30.2,0,7.3-17.5,18.3-19.7,30.1-19.1,101.2,8.1,214.3-43.2,307.8-40.4,73.4-133.2,186.3-139.7,265.5-1.8,21.9,2.1,43.8-1.8,65.7-5.7,31.2-34.7,76-47,109.3-31,84.1-53.9,189.6-62.5,278.3-1.1,12-1.1,88.1-4,91.8v11.2h35.7c-1.5-131.5,21.5-260.2,67.4-384.2,11.5-31,41.3-101.8,60.4-126.7,2.8-3.7,4.9-8.2,10.1-9.5,30.2-4.1,21.9,13.3,32.7,24.1,19.5,19.3,44.4-25,63.8-28.4,3.2-4.3-16.8-31.1-27.7-26.1,2.4-10.6,7.6-15.9,8.2-28,.8-14-8.7-32.4-6.6-39.5,4.5-15.4,74.3-102.4,90-110.2,13.5-6.7,66.8-13.4,80.5-9,19.1,6,5.4,66.8,29.3,73.7,41,11.9,24.4-73,10.9-92.9-11.9-17.6-33.9-23.1-55.2-22.8-50.4.7-91.4,24.9-123.4,60-14.8,16.2-49.2,76-59.3,82.8-13.5,9-50.3,1.6-69.9,27.7-19.6,26.1-5.3,48.8-7.9,70.9-.5,4.2-5.9,19.9-11.9,21v-69.3c0-34,143.4-230.7,161.9-278.2l20.9-259.6c3.6-3.4,70.3,58.4,77.3,63.8,5.9,4.6,9,8.7,18,7.3l-91.3-84.2,17.2-16.6c20.6,8.9,65.7,56.9,84.3,59.5,4.7.7,9.4.7,13.7-1.8l6.1-16.8-220-189.3c23.7-23.8,42.3-69.7,65.1-91.6,14.1-13.5,27.5-5.5,45.5-2.1,46.2,8.7,91.2,23.6,135,39.4,6.6,8.6-45.2,37.1-39.7,52.4l61-48.3c4.9.8,28.9,27.8,36.3,33.5,8.2,6.3,18-1.5,13.9,18.6,23.2.4-8.6-21.6-3.9-26.2,23.9,16.2,53.6,12.6,70.8,36.2,53.3,73,23.4,144.2,20.4,224.1-2.3,60.7,9.2,123,4.1,183.9-1,11.5,1.9,9.6-11.9,9.2,1.6,5,3.7,25.1,4.1,31.7,5.1,69.6-13.2,166,10.7,229.9,2.3,6-2.1,10,8.9,8.2-19.5-57.9-13.3-116.5-11.9-176.1.2-7.1-1.6-60,2-60,1.3,20.1,3.7,40,6,60,16.3,143.1,52.1,198.5,106.3,325.1,53.2,124.4,96.9,267.5,155.9,386.9.7,1.4,10.2,3.3,8,9.3.1,3.9-5.4.9-8,1.9-10.9,4.1-55.4,20.8-63.2,14.5-26.5-82.2-73.8-162.2-101.6-243.3-27-78.9-47.4-165.4-73.2-245.9-1.9-6.1,3.2-10.6-8.4-8.7,24.5,92.4,45.8,185.5,79.3,275.5,26.6,71.4,64.2,160.7,99.9,228.1,6.3,11.8,15.9,28.7,27.3,36,6.2-2.4-17.5-18-4-28.1,6.6-4.9,48.3-18.8,55.7-15.2l122.5,274.6c3.5,21.7-28.1,8.2-39.1,8.5-6.7.2-29.6,8.8-39.1,3.2l-44.5-96.6c-6.2-4.9-91.7,31-105.2,37.2-10.7,16.5,24.7,40.5,17.8,68.5-.9,3.6-7.4,5.4-7.8,6.6,8.1-.4,15.6-6.6,25.7-7.6,29.9-3.1,168.3-4.1,192.9,1.9,39.5,9.6,35.8,102.8,6.8,115.3-26.9,11.6-47.6,2.9-72.3,2.7-31-.2-109.3,5.5-133.5-1.5-8-2.3-21.9-14.9-23.5-22.8-3.4-16.8-1.1-71.1,3.9-88-6,.3-42-13.7-61.6-15-20.6-1.3-56.7-4.3-69.5,11.2,5.8,2.3,11.5-3.7,13.9-3.7h71.5c1.2,0,17.9,9.3,19.8,11.3,13.5,15,13.2,72.3,3.7,89.5-14.3,26-74.7,17-101,15.3-.8,4.2,0,7,3.9,9.4,10.7,6.4,101.2,5.7,109.8-16.7,7.8-1.3,15.4,15.1,24.2,17.7,31.7,9.3,159.6,7.3,197.8,4.6,11.5-.8,19.9-7.2,31.1-7.2,10.6,2.8,15,44.7,34.4,44.6,4.7-4.6-26.5-44.9-27.7-54.7-1.9-14.1,7.1-32.8,8-48.2,2-30.9-6.8-72.2-4.6-97.7.6-7.1,8.1-5.2,8-7.1-.4-5.8-3.6-11.5-3.5-20.8-19.7,2.4-26.4-8.6-23.8-26.2-5.2,2.4-18.6,5.6-19.9-2-.6-3.3,5.1-7.3,5.9-11.2.7-3.6-2.5-8,0-12.9,5.4-10.5,23.4-13.2,34-7.6,15.6,0,6.5-48.1,2.9-60.9-7.8-27.9-66.1-128.2-62.8-146.7,22.5-7.5,42.7-23.9,67.8-21v-15l-79.2,18.5c-33.5-88.3-75.1-173.6-110.5-261.2-36.8-91-68.2-158.3-76.4-257.7-8.8-106.5-17.8-215.9-23.8-322.3-5.4-95.3,20.7-186.8,42-278.9,15.4-18.5,40.2-27.1,59.2-41.6,19-14.5,42.1-52.3,70.8-44.2,7.1,2,12.2,11.9,19,15.9,62.6,36.8,154.4,44.6,226.2,54.6l-.6-27.6c-3.3-9.4-22-5.4-32.2-7.2-35.9-6.4-73-11.8-108-21.7-20.1-5.7-54-23.7-68.1-25.7-7.9-1.1-48.7-4.5-55-3.9-11.8,1.1-17.1,10.1-26.1,15,8.2-25.9,9.3-49.7,7.9-76.8-.6-10.7-8.3-22.3-6.1-32,4.3-19,61.2-101.2,76-123.3,19.9-29.5,41.2-58.6,62-87.7,5.2-7.3,23.5-24.9,25.3-28.9,3.1-6.7-2.2-11.6-1.2-14.2.2-.5,7.2-.2,6.9-8.1-.3-6.9-9.1-18.9-.2-24.6l32-1.6c0-1.2-.2-2.7,0-3.7l-41.9-3.5-1.8-11.4,27.7-11.2-27.2-8.1-.6-14.4c14.2,2,43.1-7.4,43.7,11.2l-15.8,3.7,15.6,4.1c5.7,17.9-13.1,8.1-19.6,18.4l23.8,3.8c1-.9,7.5-.8,11.9-5.4,23.2-24.3,42.6-52,69.4-73.3,4.2-17,1.6-35.1,2.1-52.4l-19.9,1.8c5.9-10.1-1-40.2,19.9-28.1.4-36.8-1.6-74-.2-110.7.2-6.5,9.5-27.3-1.7-24.1-120.6,96.2-233.5,205.1-320,329.7l-7.8-2.4c-4.5-37.1-42.3-40-65.6-61.3l-8,11.2-13.9-7.5c5.2,9,5,21.2,7.9,30-6.4-7.4-8.7,5.9-9.8,7.5-9.9,14.1-23.7,32.2-25.9,48.8,8.7-4.5,38.7-52.8,35.7-56.2.3.9,10,2.6,7.4,12.2l-47.1,77.7,57.8-78.6c28.6,6.3,38.2,34.5,31.8,60.1-3.6,14.6-47,71.2-58.5,90.9-19.5,33.2-22.6,71.6-68.8,77.8l-269.5-42.2c-14.4-5.1-2.8-62.2,11.1-63.1,29.1-2.1,101.7,26.6,139.6,29.6,48.4,3.9,86.9-7.2,122.6-36.9,9.8-8.2,26.7-20.7,25.9-33.8-15.3,9.4-25.6,24.9-40,35.2-80.8,58-166.8,11.4-253.9-1.6.6-6.4-4-11.7,6-11.3,17.7.7,65.6,21.1,78.6,18.2,4.5-1,38.6-32.8,34.5-36.9l-41.4,29.7c-20.7-7.2-46.6-9.1-66.9-14.9-3.5-1-2.9-7.4-5.1-7.4l-13.6,3.9v-11.3c-18.3,8.2-37.3,13.4-57.7,14.9-116.7,9-267.7-6.7-384.2-23.4-29.5-4.2-75-14.5-92.9-36.8l-30.6,11.1-53.4-72.7c.8-10.6,63.8-34.9,54.6-43-28.2,3.6-40.6,32.5-67.5,37.4.6-20.4-16.9-40.8-1.9-59.8,127.7-85.8,257.1-171.8,398.4-236.8l-3.3-36.9,23.8-7.5-31.8-6.1c-59.1,37.4-126.2,62.8-186.3,98.2-46.7,27.5-87.2,64.1-136.8,87.2l-328.6-315.9-3.3-10.7,15.2-19-45.4-40-33.5,31.5c3.7,9.4,22.2,14.6,25.8,21.2,4,7.2-4.2,14-.5,22.3,2.9,6.4,21.1,17.1,26,24.6l-15.8,5.5c9.3,1.6,25.3,20.6,23.4,27.4-3.5,12.6-55.2,44.1-59.7,62.1l-27.3-5.2c8.4,6.4,15.2,21.2,27.7,15.1,22.6-28,56.9-50.3,73.6-80.7,8.5,10.4,29.7,20,25.3,34.8-2.3,7.9-59.8,55.9-71,68.3-4.3,4.7-10.3,5.6-6,13.1,4.7,8.2,8.2-2,10.8-4.8,17-18.6,34.7-37.5,52.8-51.3,8.1-6.2,14-19.6,25.9-13.4l122.8,116.9-57.3,53.9-24.4-18.6-15.4,10.9c-8.4,0-61.2-57.2-73.3-65.6-5.4-3.8-8.3-6.9-16.1-5.4,21.6,17,55.6,63,77.2,75.1,17,9.5,20.7-4.6,27.5-3.6,7.5,1.1,14.9,21.1,27.6,18,5.7-1.4,55.7-47.9,54.8-59.2,1.9-1.5,9.6-.7,12.7.3,8.2,2.7,115.5,105.5,113.9,113.2l-59.4,36,14.1-22.3c-14.1-11-71-95-82.9-93.4-11.5,9.7-42.6,22.5-37.9,38.1,2.2,7.2,19.5,15.6,19.5,26.8-15,11.6-36.9,18.9-38,39.5-38.2-15.1-28.3-29.6-38.8-57.1-8.4-21.9-41.2-40.1-58.7-57.1-12.6-12.3-76.2-68.8-79.4-73.2v11.3c-7.7,1.4-13.2-1.4-19.9-3.8-1.6,8.6,3,11.4,7.8,17,24.1,28.2,65.3,64,93.4,91.8,10.5,10.4,28.3,14.1,25.9,33.6-.6.7-9.6-4.6-11.5-5.9-91.8-62.1-178.5-169.6-270.5-235.8-20.3-24.2-11-36.4,19.4-22.1,42.3,20,78.6,87.8,123.6,113.9l-11.9-26.2c7.9-1.4,13.1,1.2,19.9,3.7,1.5-8.5-3-11.4-7.8-17-18.8-21.8-42.6-40.4-59.7-63.6h15.8c0,0-21.8-13.1-21.8-13.1v7.4c-5.8-2.7-10.3-12.3-13.9-14.9h7.9l4-18.8c-8.4,3.2-13.4,10.1-11.9,18.8h-.2ZM287.3,335.8l125.3-71.4,36.7,43.4c.8,5.6-17.6,16.2-22.2,19.3-11.5,7.6-101,59.6-107.2,60.2-9.5.9-36.7-44.6-32.6-51.4ZM338.4,425.2c3.1-12.4-17-24-10.2-33.8l129.3-76.7c17-1.6,13.4,6.3,3.7,14.7-31.6,27.5-77.2,46-107,79-5.2,5.7-4.1,18.6-15.9,16.9h0ZM215.3,312.8c5.5,0,11.7-.9,17,.8,8.4,2.7,59.5,74.1,67.1,86.6,4.8,8,28.5,49.2,23.1,55-7.4,1.5-9.6-3.5-13.6-7.8-24-25.8-61-80.5-81-110.9-2.4-3.6-14.8-21.8-12.6-23.6h0ZM183.5,369c-45.6,3.6-25.3-39,7.9-41.2l-4,14.9c12.8-1,21.7.5,19.9,15,6.4,1.5,17.7,7.1,15.9,15l-20.2,1.7-3.7,13.4c3.2-23.2,41.3-10.1,39.7,11.2-14-3-12.8,13.7-27.9,9.7-11.3-3-13.2-10.7-11.8-20.9l-23.8-3.8,7.9-15h0ZM560.9,428.9c8.9,9.2-29.7,42.6-37.8,48.6-12.5,9.2-75,43.8-87.7,45-32,3-57.7-46.1-76.4-66.2,7.7-13.8,9.5-27.3,21-38.9,29.4-29.4,77.8-52.8,111.4-78.6l6,5.6-122.8,90.5,57.1,72.6,129.3-78.7h0ZM259,440.2c8.2-1.1,14.3-.8,19.5,6,20.8,26.9-45.7,43.5-31.4,5.3l-23.8,7.5c10-16.4-4.9-40.1,18.9-44.3,17.3-3.1,26.6,10.9,16.9,25.6h0ZM102,432.7v3.8c-2.6-1.2-2.6-2.5,0-3.8ZM106,440.2l5.9,5.6-1.9,1.8c-2.2-2.4-8-4.9-4.1-7.4ZM322.5,537.6l-24.1-1.6-3.7-17.2c-42.2,8.9-39.4-28.7-4.1-39.7,24-7.5,16.8,23.7,20.7,27.9,3.3,3.5,29.1,4.9,15.2,26.9,5.3-1.2,13.8.9,19.9,0l-3.7,9.6,7.5,1.7v5.5c-15.1,4.4-12.8,16.5-15.8,20.7l11.2-.6,2.7-10.8c19.3-2.4,32.8,8.6,21.8,26.4,9.8-1,21.6,2.4,26.1,11.3,1.8,3.6-5.5,18-6.2,18.6,17.3-20.1,13.1-2.4,18,3.6,4,5,12.9,1.3,9.8,11.3l-31.8,15c4.3-9.4-7.8-12.3-8-13.1-4.2-14,7.3-7.1,11.1-10.1,2.4-1.9.3-6.2.9-6.8-2,1.6-22.2,5-23.8,3.7l3.9-14.9-15.8,3.7c-.9-5.7,1-10.2,3.9-15-16.8.3-24.8-6.2-23.8-22.5-.2.3-4.7-1-6.8,1.1-2.7,2.7,1.6,13.7-7,10.1-7.8-3.3-6.2-15.8-6-22.4l-11.9,3.8c-5.9-6.6,14.6-23,19.8-26.2ZM684.1,593.9h7.9v3.7h-7.9v-3.7ZM171.6,638.8h7.9v3.7h-7.9v-3.7ZM155.7,657.5c-4.1-3.8,7.8-15,11.9-11.2,4.1,3.8-7.8,15-11.9,11.2ZM302.7,867.3l87.5-80.6c16-7,31.5,11.8,47.6,13.2l-29.8,36.5c-10.9-1.4-22.8-23.2-33.3-17.4-2.3,18-39.3,36-34.2,51.8l13.8,15.2-51.6-18.8ZM358.3,889.9c19.6-.7-.2,18.8-6,22.4l6-22.4ZM342.4,931.1c-1.1-7,0-13,7.9-15l3.9,16.9-11.8-1.9ZM883.9,1003c23.2,6.6,27.6,49.7-7.2,51.9-51.9,3.3-41.4-65.6,7.2-51.9ZM1029.7,1167.2h31.8c-6.8,22.7,19.1,9.4,15.8,29.9-26.9-3.2-49,4.9-47.7-29.9h0ZM1212.5,1219.7c-9-.9-32.5,3.8-35.5-6.1-1.3-4.2,9.7-50.7,23.6-36.9l-4.1,13c5.6,4.6,19.1-16.4,23.8-11.2,7.8,8.6-7.6,16.5-7.8,17.5-1.7,7.1.8,16.2,0,23.7h0ZM1315.8,1178.4c81.9,4.6,164.9,13.3,246.3,0l-9.9,56.3c-74.1-18.3-153.3-24.7-225.5-49.7-4.2-1.4-11.8-1.3-10.9-6.5h0ZM1240.3,1185.9c9.3,2.8-2.1,2.3,17.5,4.1,34.3,3.1,4.2,60.2-17.5,25.9l-17.8,7.6c-7,.7-6.2.1-6.2-5.8,0-11,9.5-36.2,24-31.7h0ZM1315.8,1230.9c-2.4,9.9,3.8,21-15.9,18.7,6.9-22-21.7-9.1-14.3-33.8,5.9-19.6,40.1-19.4,34.2,3.8,7.9-12.9,29.9-12.6,32.1,5.5,3.5,28.8-27.5,28.5-36.1,5.7h0ZM1434.9,1260.8c-15.8,14.5-33.2,4.2-33.8-15l-6,22.5-28-1.6c-8.9-4.4,2.5-41.5,4.7-42.9,8.1-5.4,36.2,3.6,31.4,18.3h3.9c-1.9-13.3,17.6-6,27.9-7.5v26.3c.4-4.3,8-14.2,4-22.5,6.1-2.5,10.2,3.5,11.9,3.7,4.8.7,10.8-.6,15.9,0v26.3h7.9c1.3-6.4-.8-5-3.9-12.8,9.1-11.5,23.6-10.7,35.8-3.9-3.4,15.1-11.3,47.3-31.9,24.2-1.1,1.1-12.6-2.8-7.9,15-14.3,1.9-12.7-12.1-23.8-11.2-.4,0-2.7,5.5-7.9,3.7.5-7.3-.8-15.2,0-22.5h0ZM1538.2,1287.1c-3.9.2-14.6,5.1-15.9,3.7v-18.7c0,0-4,11.2-4,11.2-23,4.3-5.9-18.6-7.8-29.9l27.1,4.2.5,25.7,4-26.2,12.3,10.8,15.5-1.4c-7.6,11.3-7.6,15-4,28.1-10.8,4.4-11.7-6.6-13.9-6.8-1.6-.1-13.2-.7-13.9-.7h0ZM1121.1,1268.4l206.6,52.4c0,2.9.3,5.8-.7,8.7-1.1,3.1-36.1,50.4-39.1,53.1-2.7,2.4-4.4,6.1-9.2,5.1l-133.9-95-23.8-24.4h0ZM1729.6,1299.1l4.9-.5c8.1,6.2,26.8,12.6,14.3,24.1l-23.8,5.4-.3-10.7-23.6-.4v-15c1.9-2.1,28.5,12.2,28.5-3ZM1935.6,1302.1c1.2-1.3,19.3,5.2,23,6.6,5,1.8,10.6-1.8,8.8,6.5-20.2,28.5-28.1,7.2-55.6,9.4v-11.2l23.6-.4.2-10.8ZM1423,1339.6c1.3,5.6-2.2,8.2-4.7,12.4-5.5,9.1-58.1,77.5-62.9,79.6-3.1,1.3-5.6,2.7-9,1.3-9.3-11.6-39.5-16.7-31.6-32.2,3.1-6.1,48.7-64.9,52.6-66.8,13.7-6.4,39.6,7.4,55.6,5.7h0ZM1956.6,1366.6c28.4,7.8,15.9,65-26.7,59-42.6-6-29.7-74.5,26.7-59ZM1805,1489.1c-2.4-2.3-1.6-21.1,3.1-24.3,34.8-5.5,17.1,27.3,28,47.1-19.3,5.1-16.3-18-20.9-21.8-2.1-1.8-9.1.2-10.3-1h0ZM1865,1507.4c-3-5.5,11.3-31.8,22.4-24.9,2.6,6.9,8.5,12.4,8.9,20.2.1,2.8-15.8,14.5-8.4,28h-15.8c-.7-6.5,1.4-13.9,0-20-.7-2.8-6.6-2.6-7-3.3ZM1832.3,1695.6c-10.9-3.1-5.2-29.6-1.7-30.2l45.1,4.2.3,14.7h-15.9l11.9,18.7c-11.2,0-15.8-6.4-27.8-7.5-.2,12.5,14.6,12.9,23.8,15,1.2,1.6-10.5,35.9-11.9,37.4-4.6,4.9-7.1,2.8-11.9,3.7-.5.1-2.3,4.3-5.4,3.5-10.3-8.3-10.5-15.6-6.5-26,.7-1.8,3-6.6,4-7.5-11-8.8-20.6-16.7-4-26.2h0ZM1819.8,1781.2c.5-17.3,13.7-17,28.6-12.8l3.7,28.4-47.5-4-.2-11,15.4-.5h0ZM1817.3,1825.8c-17.2-16,17.1-38.8,32.9-17.9l-4.1,18.8-5.9-14.9-3.9,18.7c-5.8.2-14.7-.8-18.9-4.7h0ZM1800.4,1845.5h47.7l4,45-34.8-4.7-3.9-9c-.4-20.5,15.4-9.6,22.8-20.1h-35.8v-11.2ZM1816.3,1942.7c-22.5-20.7-4.3-44.9,25.1-36.6,22.7,6.4,7.4,27,14.3,42l-23.3,13.4,27.8-3.7v11.2l-11.9,3.7c20.9,3.6,12.5,18.5,14.1,30.4.8,5.8,12.5,17.3,1.9,24.1-4.1,2.6-29.2,5.2-31.5,1.4-.6-10.7-5-21,7.5-24-7.5-5.2-15.7-7.8-15.1-18.2l11.1-9.9,4,15,.3-16.4c-17.3-2.6-16.3-18.4-31.5-17.7l-.6-12.3,7.9-2.4ZM1868,2059.1c14.9,6.8,14.1,21.7,8,33.7l11.9,11.2-11.9,3.7,13.5,3.6,2.3,7.7c-11.6-1.1-13.4.2-19.9,7.5,31.2-7.2,46,24.6,11.9,32.1-19.5,4.3-21.4-15.2-15.9-28.3l-19.9-3.8,11.9-14.9-15.9-2c2.3-14.6,14.3-11.2,23.9-13.1l-22.1-11.2c-3.4-6.3-.6-16.4,2.2-22.5-14.4.6-16-21.6-5.1-25.5,3.9-1.4,22.1-4.5,25-2.9,6.4,6.6,13.7,19.6,0,24.6h0ZM1360.6,2149.8c21.4,6.1,8.4,44.9-15.5,47.8-44.3,5.4-26.5-59.8,15.5-47.8ZM2169.9,2838.5c-4.8,1.4-14.1-.9-19.9,0l4-18.7c-18.3,4.8-22.3-11.2-23.6-26,16.4-5.1,28.7-14.9,47.4-11.5l-11.9,14.9,19.6,4.1.3,11-19.9,7.5,23.6-3.6,4.2,14.9c-13.1-5.8-22.5,7.1-23.8,7.5,6.9-7.4,26.9-5,31.1,6.4,6.8,18.5-32.1,33.2-35.2,10.4-.3-2.5,2.8-15.5,4.1-16.8h0Z"/>
</svg>