<svg width="2359" height="3167" viewBox="0 0 2359 3167" fill="none" xmlns="http://www.w3.org/2000/svg">
<path d="M517.356 603.326C506.437 595.412 475.634 579.245 462.564 577.819C445.429 575.944 427.855 586.934 411.637 577.369C404.663 562.628 329.15 480.406 330.385 474.104C332.617 462.889 343.815 475.267 346.365 477.706C380.515 509.814 391.593 562.29 456.427 540.31C486.513 530.107 554.136 487.308 574.698 464.389C621.6 412.101 515.801 315.1 473.203 287.005C467.226 283.066 419.089 255.534 415.781 254.934C404.026 252.758 362.583 257.222 349.234 259.548C309.505 266.375 227.337 305.122 191.314 282.766C186.771 279.953 137.518 208.159 130.744 197.431C94.9994 140.641 68.1413 78.2248 29.6475 22.8601C24.6265 15.6582 17.4934 -1.07122 8.08911 0.0540811V307.335L22.1958 310.824C32.4369 323.615 8.08911 326.015 8.08911 331.679V460.976L37.3782 453.662C47.3403 456.362 54.4334 495.598 69.0579 494.21L115.123 467.99L111.536 449.761C140.227 459.363 139.231 444.097 129.588 423.316C109.942 381.042 67.4637 338.881 44.4312 297.245C43.3154 290.681 60.0518 276.277 67.8223 282.804L266.827 560.527C268.421 571.705 255.908 574.931 248.018 580.37C223.232 570.055 155.131 484.195 133.493 483.82C123.411 483.67 29.4084 536.896 23.6304 545.073C21.9169 547.474 19.9244 549.499 20.2034 552.688C19.3665 565.479 32.1578 566.191 37.7366 573.431C62.124 605.052 81.9289 641.099 109.265 671.069L120.463 673.995L147.281 659.591C154.174 665.78 90.4565 702.99 133.374 715.894L276.55 599.613C281.332 595.824 289.66 590.873 295.876 591.811C302.093 592.748 359.515 676.02 371.988 689.599C395.06 714.731 423.751 736.486 449.453 759.142C435.626 788.813 406.337 741.663 380.475 761.243L290.417 837.538L268.062 880.45C254.195 884.351 249.014 863.72 242.678 859.969C224.348 849.091 190.158 892.19 171.11 895.716C186.173 932.513 226.739 945.717 243.396 981.351C276.948 972.011 309.624 1007.53 338.196 1014.02C348.756 1016.42 364.536 1011.77 377.168 1020.06L409.764 1150.48C415.184 1146.77 430.167 1141.93 437.618 1142.98C437.578 1142.68 442.32 1143.51 441.404 1137.58C439.451 1125.01 429.37 1112.67 434.191 1098.49L505.202 1082.97L484.998 1004.68L409.804 1019.35C417.335 1002.17 391.235 991.291 390.119 987.128C388.365 980.564 407.453 966.497 401.675 955.807C391.872 956.857 388.325 951.831 381.95 948.155C375.056 944.179 367.206 942.078 362.145 934.989C370.712 931.763 378.881 942.866 381.95 944.404C411.796 959.108 441.444 973.999 471.051 989.116C483.723 978.876 510.86 930.488 526.84 932.888C530.107 933.376 532.538 952.206 550.231 948.342C553.698 941.741 584.142 914.771 584.899 912.446C585.497 910.608 586.174 903.143 582.867 903.218C576.73 911.995 554.973 942.679 543.974 940.128L419.487 843.127C414.227 833.187 443.635 812.257 447.979 801.679L489.342 824.447C491.573 811.694 475.475 812.219 470.812 808.243C457.622 796.99 449.095 783.561 474.957 784.124C561.388 859.969 653.279 930.413 727.119 1017.89C722.178 1031.99 721.739 1069.91 708.031 1077.3L441.643 1146.77C443.436 1156.94 440.766 1167.1 449.613 1176.74C457.463 1172.84 496.276 1168.19 510.143 1164.44C578.244 1146.02 645.828 1125.76 714.646 1109.49C727.358 1109.15 770.554 1135.63 771.989 1148.76C771.51 1176.55 727.159 1199.96 721.779 1221.71C719.747 1229.85 724.09 1235.74 722.616 1244.3C712.255 1303.11 649.255 1400.75 630.606 1465.27C629.131 1470.33 627.776 1474.98 628.693 1480.27C654.794 1480.35 652.801 1442.09 663.361 1424.98C665.433 1421.61 663.042 1419.35 670.175 1420.25L819.01 1495.8C827.896 1508.97 770.634 1625.21 767.645 1648.77C759.317 1654.47 657.384 1606.04 636.583 1615.19L640.528 1635.86L749.155 1668.42L755.89 1676.75L592.311 2064.41C582.907 2069.96 485.636 2035.53 470.812 2028.03C423.233 2003.98 391.234 1960.81 347.441 1934.37C326.919 1921.99 297.949 1910.73 274.518 1903.68L353.896 1689.09C377.845 1664.33 431.123 1713.21 446.704 1681.62C465.313 1643.89 359.754 1631.74 330.505 1654.8C324.528 1659.53 319.666 1670.26 312.613 1675.43L234.27 1892.05L16.4976 1876.98C12.8315 1840.03 20.2431 1803.64 20.1235 1766.77C20.0837 1756.08 15.8199 1746.85 15.78 1737.14C15.6605 1690.18 7.8901 1636.84 39.769 1598.28L83.6025 1596.48L87.5476 1566.47V1624.57C87.5476 1642.95 153.298 1629.75 165.133 1629.9C190.357 1630.16 227.058 1642.46 250.648 1628.32V1544C211.716 1543.92 171.867 1544.19 133.135 1540.4C121.857 1539.27 114.764 1533.35 101.614 1532.52C79.2193 1531.1 43.3954 1537.77 27.6951 1553.23C23.4711 1557.35 0 1592.16 0 1594.6V1911.26L143.216 1914.97L147.161 1993.71H51.6836C50.8866 2021.76 52.7199 2050.08 51.8433 2078.18C51.2854 2096.82 39.4102 2123.27 53.676 2139.85H149.154L155.131 2134.22V2068.65C172.983 2074.69 188.245 2074.8 195.02 2055.34L186.97 1918.76C228.134 1923.15 269.855 1931.59 306.357 1950.57C361.149 1979 402.83 2030.32 458.778 2058.07C498.029 2077.58 541.504 2084.56 582.946 2098.51L592.749 2282.31H447.541C437.26 2289.36 434.909 2302.79 433.673 2314.23C429.609 2352.26 437.658 2392.4 437.778 2430.55C437.857 2451.63 424.907 2523.65 439.491 2537.26C455.789 2552.45 469.418 2531.79 469.418 2516.56V2454.74C488.266 2449.71 558.479 2464.34 566.927 2451.03L575.176 2327.17L515.204 2323.57L473.402 2316.1H596.734L606.497 2447.46C610.402 2458.75 618.332 2460.41 630.088 2458.12C636.941 2455.87 638.814 2439.81 639.014 2433.51C641.325 2353.16 623.831 2270.98 620.484 2190.71C619.408 2165.16 621.6 2139.28 620.683 2113.74C672.526 2121.02 719.109 2160.4 770.275 2165.8C842.043 2173.38 883.087 2144.72 944.215 2120.57C1028.53 2087.26 1080.78 2074.84 1120.98 1987.29C1129.75 1968.2 1166.61 1850.94 1173.62 1847.64C1177.05 1833.8 1151.91 1838.27 1149.75 1836.39C1152.18 1824.95 1155.85 1828.93 1153.7 1817.67H1145.73C1145.97 1825.02 1142.98 1827.65 1141.74 1832.68C1134.65 1862.12 1121.18 1890.74 1109.91 1918.87C1103.13 1935.83 1098.15 1950.61 1090.02 1967.6C1084.24 1979.68 1081.37 1985.83 1074.12 1997.57C1071.33 2002.07 1070.61 2006.84 1066.15 2012.57C1056.63 2024.88 1046.27 2032.79 1034.31 2042.54C1029.41 2046.56 1023.71 2050.2 1018.41 2053.8C1012.52 2057.81 1012.95 2059.65 1002.51 2065.05C996.815 2067.98 994.065 2067.45 990.599 2068.8C983.306 2071.58 979.72 2074.02 970.714 2076.3C962.545 2078.37 949.953 2083.47 942.86 2083.81C939.273 2090.14 931.304 2089.17 926.96 2091.31C911.539 2098.85 899.584 2103.76 883.206 2110.06C880.895 2110.96 878.424 2112.65 875.237 2113.81C841.325 2126.38 834.232 2130.32 795.659 2132.57C794.902 2132.61 792.909 2136.02 789.681 2136.06C786.454 2136.09 784.461 2132.61 783.704 2132.57C778.564 2132.31 772.507 2133.28 767.805 2132.57C761.23 2131.56 760.273 2128.93 759.835 2128.82C745.091 2125.25 745.489 2131.37 731.981 2117.56C715.005 2114.34 699.902 2104.62 684.242 2098.81C676.83 2096.07 668.462 2094.38 660.373 2091.31C656.946 2090.03 653.957 2088.12 652.403 2087.56C648.976 2086.32 645.788 2085.94 640.488 2083.81C635.865 2081.97 629.569 2081.29 624.588 2080.02C622.118 2074.5 627.856 2071.09 628.573 2068.8C629.888 2064.68 631.124 2061.49 632.558 2057.55C633.913 2053.84 635.786 2051.85 636.543 2050.05C639.133 2043.86 641.883 2037.33 644.513 2031.29C645.868 2028.14 647.501 2025.97 648.498 2023.79C654.435 2010.96 656.906 2003.38 664.397 1990.07C666.669 1986.05 665.593 1978.44 672.367 1975.06C672.885 1962.91 680.974 1956.68 684.282 1948.84C685.637 1945.66 687.43 1943.29 688.267 1941.34C693.646 1928.93 698.747 1916.32 704.166 1903.87C707.832 1895.47 707.075 1884.25 716.081 1877.65C719.906 1860.85 726.083 1851.36 731.981 1836.43C735.208 1828.21 739.671 1825.85 739.95 1825.17C741.425 1821.31 741.106 1813.92 743.935 1806.42C745.29 1802.78 747.442 1800.16 747.92 1798.92C750.67 1791.57 753.061 1783.95 755.89 1776.45C758.44 1769.66 761.668 1763.43 763.859 1757.69C766.649 1750.38 768.96 1742.69 771.829 1735.23C775.655 1725.14 779.958 1715.16 783.744 1705.26C786.533 1697.94 788.765 1690.29 791.714 1682.79C795.978 1671.76 799.325 1660.21 803.628 1649.07C808.928 1635.37 814.149 1621.53 819.528 1607.84C822.796 1599.59 827.219 1597.26 827.498 1596.59C830.008 1590.25 830.646 1578.47 835.468 1566.62C838.735 1558.55 843.158 1556.04 843.437 1555.37C844.912 1551.76 844.234 1544.26 847.422 1536.61C850.61 1528.96 855.073 1526.03 855.392 1525.36C856.866 1521.91 855.87 1514.37 859.377 1506.6C869.578 1484.06 870.176 1485.18 891.216 1472.88C894.125 1471.16 896.157 1470.41 899.186 1469.13C904.007 1467.1 904.884 1462.38 915.085 1461.63C917.715 1461.44 920.385 1461.7 923.055 1461.63C925.685 1455.7 940.309 1455.7 942.939 1461.63C945.41 1461.22 948.319 1461.89 950.909 1461.63L958.879 1465.38C963.063 1465.19 967.167 1465.49 971.073 1466.99C974.46 1468.12 976.811 1470.07 978.763 1472.84C990.399 1468.61 1000.16 1460.43 1006.62 1450.38C991.276 1443.17 981.792 1431.62 963.9 1428.81C926.681 1422.92 885.119 1429.07 855.751 1452.55C846.267 1460.13 833.037 1484.28 826.262 1483.72L677.069 1408.55C674.479 1400.04 676.91 1391.78 679.141 1383.57C685.876 1358.63 723.851 1270.22 737.001 1247C747.482 1228.5 779.321 1209.75 793.427 1187.69C832.678 1126.29 782.03 1102.85 729.869 1079.36C727.956 1076.44 734.929 1047.18 736.244 1040.05C736.962 1036.12 733.335 1027.56 742.022 1030.68C765.135 1038.89 769.797 1066.46 782.11 1082.85C800.759 1107.68 828.215 1119.5 859.417 1124.34C852.921 1140.39 798.886 1183.3 808.45 1198.57L847.502 1227.53L855.551 1227.6L908.988 1165.22C912.615 1160.99 914.328 1162 918.911 1163.5C927.04 1166.2 963.063 1192.61 976.094 1199.88C986.215 1205.51 1022.08 1218.75 1026.58 1223.55C1031.6 1228.88 1029.01 1235.93 1031.64 1239.38C1099.19 1326.67 1293.53 1422.96 1388.57 1504.61C1403.87 1517.78 1417.34 1536.95 1436.19 1544.15L1342.74 1682.67C1341.82 1659.38 1312.3 1640.85 1298.99 1667.78C1290.86 1684.25 1316.52 1705.59 1332.78 1693.93C1319.35 1748.24 1258.9 1735.11 1213.47 1735.15C1212.99 1738.11 1209.25 1742.43 1209.49 1746.4C1210.48 1746.03 1212.08 1746.59 1213.47 1746.4C1266.71 1738.94 1293.37 1765.46 1333.74 1715.42C1372.27 1667.67 1398.85 1604.35 1440.13 1557.02C1450.29 1551.73 1472.13 1581.59 1472.09 1587.21C1472.09 1594.53 1454.56 1605.48 1452.33 1617.29C1433.16 1718.5 1460.49 1831.55 1409.05 1925.06C1368.64 1998.51 1275.72 2111.41 1269.18 2190.56C1267.39 2212.46 1271.33 2234.37 1267.35 2256.31C1261.69 2287.52 1232.6 2332.35 1220.33 2365.66C1189.32 2449.75 1166.33 2555.31 1157.76 2643.98C1156.61 2655.98 1156.69 2732.05 1153.74 2735.77V2747.02H1189.52C1187.97 2615.47 1211.08 2486.85 1256.99 2362.77C1268.46 2331.78 1298.31 2261 1317.44 2236.1C1320.27 2232.42 1322.38 2227.92 1327.6 2226.61C1357.84 2222.55 1349.48 2239.92 1360.35 2250.69C1379.92 2270 1404.83 2225.67 1424.19 2222.25C1427.42 2217.9 1407.34 2191.12 1396.42 2196.11C1398.81 2185.46 1403.99 2180.17 1404.67 2168.13C1405.46 2154.17 1395.98 2135.72 1398.09 2128.59C1402.63 2113.14 1472.49 2026.15 1488.23 2018.43C1501.78 2011.75 1555.09 2005.07 1568.84 2009.39C1587.97 2015.39 1574.26 2076.19 1598.13 2083.09C1639.14 2094.95 1622.56 2010.1 1609.09 1990.22C1597.21 1972.66 1575.1 1967.11 1553.78 1967.45C1503.29 1968.2 1462.21 1992.36 1430.21 2027.47C1415.43 2043.67 1380.96 2103.5 1370.87 2110.25C1357.33 2119.29 1320.51 2111.86 1300.86 2137.97C1281.21 2164.08 1295.6 2186.77 1292.97 2208.9C1292.45 2213.1 1287.03 2228.82 1281.1 2229.87V2160.55C1281.1 2126.53 1424.71 1929.83 1443.24 1882.34L1464.12 1622.77C1467.75 1619.32 1534.49 1681.14 1541.51 1686.61C1547.4 1691.23 1550.55 1695.35 1559.56 1693.96L1468.18 1609.79L1485.4 1593.21C1506 1602.1 1551.15 1650.15 1569.8 1652.74C1574.54 1653.42 1579.2 1653.42 1583.47 1650.9L1589.6 1634.1L1369.28 1444.79C1392.99 1420.97 1411.68 1375.06 1434.43 1353.15C1448.5 1339.61 1461.97 1347.64 1480.02 1351.05C1526.32 1359.75 1571.35 1374.64 1615.23 1390.47C1621.8 1399.1 1569.92 1427.57 1575.5 1442.87L1636.55 1394.56C1641.49 1395.35 1665.48 1422.36 1672.89 1428.06C1681.1 1434.36 1690.94 1426.59 1686.83 1446.66C1710.07 1447.04 1678.23 1425.06 1682.89 1420.41C1706.84 1436.65 1736.53 1433.01 1753.78 1456.64C1807.14 1529.63 1777.25 1600.87 1774.18 1680.72C1771.87 1741.45 1783.43 1803.72 1778.33 1864.67C1777.37 1876.19 1780.28 1874.31 1766.37 1873.86C1767.93 1878.85 1770.04 1898.99 1770.52 1905.6C1775.58 1975.25 1757.33 2071.58 1781.28 2135.49C1783.55 2141.53 1779.2 2145.51 1790.24 2143.71C1770.68 2085.76 1776.97 2027.24 1778.33 1967.6C1778.49 1960.51 1776.77 1907.58 1780.32 1907.58C1781.59 1927.69 1783.99 1947.57 1786.3 1967.6C1802.63 2110.7 1838.5 2166.1 1892.73 2292.7C1946.01 2417.08 1989.8 2560.18 2048.86 2679.61C2049.54 2681 2059.06 2682.91 2056.87 2688.95C2056.99 2692.89 2051.45 2689.89 2048.86 2690.87C2037.98 2694.95 1993.35 2711.65 1985.62 2705.42C1959.08 2623.2 1911.7 2543.26 1883.93 2462.13C1856.91 2383.21 1836.47 2296.71 1810.64 2216.18C1808.69 2210.03 1813.83 2205.6 1802.2 2207.48C1826.7 2299.86 1848.06 2393 1881.65 2482.95C1908.31 2554.37 1945.93 2643.64 1981.67 2711.01C1987.93 2722.79 1997.61 2739.67 2009.05 2747.06C2015.27 2744.69 1991.52 2729.01 2005.07 2719C2011.72 2714.05 2053.48 2700.17 2060.81 2703.81L2183.47 2978.42C2187.02 3000.14 2155.3 2986.59 2144.34 2986.89C2137.64 2987.08 2114.73 2995.67 2105.21 2990.05L2060.62 2893.42C2054.44 2888.47 1968.84 2924.44 1955.3 2930.59C1944.54 2947.1 1980.04 2971.1 1973.11 2999.08C1972.23 3002.69 1965.66 3004.52 1965.34 3005.65C1973.47 3005.27 1980.96 2999.09 1991.08 2998.04C2020.97 2994.96 2159.56 2993.91 2184.23 2999.91C2223.8 3009.55 2220.05 3102.69 2191.04 3115.18C2164.06 3126.81 2143.34 3118.07 2118.67 3117.88C2087.67 3117.65 2009.25 3123.39 1985.02 3116.38C1977.01 3114.05 1963.07 3101.52 1961.47 3093.61C1958.08 3076.77 1960.4 3022.53 1965.38 3005.61C1959.4 3005.87 1923.34 2991.88 1903.69 2990.65C1883.05 2989.33 1846.91 2986.37 1834.12 3001.82C1839.89 3004.15 1845.67 2998.11 1848.02 2998.11H1919.63C1920.79 2998.11 1937.6 3007.45 1939.44 3009.44C1952.94 3024.44 1952.7 3081.76 1943.18 3098.97C1928.84 3124.93 1868.35 3115.93 1842.09 3114.28C1841.33 3118.48 1842.09 3121.29 1846.03 3123.66C1856.75 3130.11 1947.41 3129.39 1955.97 3107C1963.74 3105.69 1971.39 3122.12 1980.16 3124.71C2011.92 3133.97 2139.99 3131.98 2178.25 3129.28C2189.76 3128.46 2198.21 3122.12 2209.41 3122.12C2220.01 3124.93 2224.47 3166.83 2243.84 3166.72C2248.5 3162.07 2217.34 3121.78 2216.06 3112.06C2214.19 3098 2223.16 3079.21 2224.11 3063.83C2226.07 3032.88 2217.3 2991.58 2219.53 2966.11C2220.17 2958.99 2227.66 2960.94 2227.54 2959.02C2227.14 2953.17 2223.92 2947.47 2223.99 2938.17C2204.23 2940.53 2197.58 2929.54 2200.13 2911.95C2194.95 2914.39 2181.52 2917.58 2180.2 2909.96C2179.64 2906.7 2185.26 2902.68 2186.06 2898.75C2186.78 2895.18 2183.51 2890.72 2186.02 2885.84C2191.44 2875.38 2209.49 2872.68 2220.05 2878.19C2235.71 2878.27 2226.58 2830.1 2223 2817.31C2215.23 2789.44 2156.85 2689.14 2160.08 2670.61C2182.63 2663.07 2202.87 2646.68 2228.02 2649.57V2634.6L2148.68 2653.09C2115.17 2564.83 2073.53 2479.5 2038.06 2391.91C2001.2 2300.88 1969.76 2233.62 1961.51 2134.22C1952.71 2027.73 1943.7 1918.27 1937.64 1811.93C1932.22 1716.62 1958.32 1625.17 1979.68 1533.05C1995.14 1514.59 2019.93 1505.97 2038.98 1491.45C2058.03 1476.93 2081.1 1439.12 2109.83 1447.26C2116.92 1449.29 2122.06 1459.19 2128.84 1463.17C2191.52 1500 2283.45 1507.8 2355.34 1517.74L2354.78 1490.14C2351.51 1480.72 2332.74 1484.77 2322.58 1482.97C2286.64 1476.56 2249.46 1471.12 2214.43 1461.22C2194.27 1455.51 2160.32 1437.55 2146.25 1435.52C2138.36 1434.4 2097.48 1431.02 2091.14 1431.58C2079.34 1432.63 2074 1441.71 2064.96 1446.55C2073.21 1420.67 2074.28 1396.81 2072.85 1369.77C2072.29 1359.08 2064.52 1347.49 2066.71 1337.77C2071.02 1318.75 2127.96 1236.57 2142.82 1214.51C2162.75 1184.96 2184.11 1155.88 2204.87 1126.81C2210.09 1119.54 2228.38 1101.91 2230.21 1097.86C2233.32 1091.11 2228.02 1086.27 2229.02 1083.64C2229.21 1083.12 2236.27 1083.42 2235.95 1075.5C2235.67 1068.6 2226.82 1056.6 2235.75 1050.93L2267.79 1049.28C2267.75 1048.12 2267.55 1046.62 2267.79 1045.53L2225.79 1042L2224.03 1030.64L2251.81 1019.39L2224.59 1011.28L2223.99 996.843C2238.22 998.831 2267.11 989.416 2267.75 1008.06L2251.89 1011.77L2267.51 1015.86C2273.25 1033.79 2254.4 1023.96 2247.9 1034.28L2271.77 1038.07C2272.81 1037.17 2279.3 1037.28 2283.73 1032.63C2306.92 1008.28 2326.41 980.676 2353.26 959.295C2357.49 942.266 2354.9 924.224 2355.34 906.894L2335.37 908.732C2341.27 898.642 2334.34 868.559 2355.34 880.675C2355.77 843.915 2353.78 806.705 2355.14 769.945C2355.38 763.419 2364.66 742.676 2353.42 745.826C2232.68 842.039 2119.63 950.931 2033.04 1075.54L2025.19 1073.14C2020.69 1036.04 1982.87 1033.15 1959.52 1011.88L1951.55 1023.1L1937.68 1015.64C1942.86 1024.64 1942.7 1036.87 1945.61 1045.61C1939.2 1038.25 1936.85 1051.53 1935.77 1053.07C1925.89 1067.14 1912.02 1085.29 1909.83 1101.83C1918.59 1097.29 1948.6 1049.06 1945.57 1045.61C1945.85 1046.47 1955.57 1048.19 1952.98 1057.8L1905.84 1135.55L1963.74 1056.93C1992.39 1063.27 2001.96 1091.41 1995.54 1117.06C1991.92 1131.62 1948.52 1188.29 1936.92 1207.95C1917.36 1241.15 1914.29 1279.59 1868.03 1285.74L1598.21 1243.51C1583.83 1238.41 1595.42 1181.35 1609.33 1180.38C1638.46 1178.32 1711.14 1206.97 1749.16 1210.01C1797.65 1213.91 1836.15 1202.77 1871.89 1173.1C1881.73 1164.92 1898.67 1152.4 1897.79 1139.31C1882.45 1148.76 1872.17 1164.21 1857.71 1174.56C1776.77 1232.56 1690.7 1185.93 1603.43 1172.99C1604.03 1166.58 1599.41 1161.25 1609.45 1161.7C1627.22 1162.45 1675.16 1182.85 1688.19 1179.93C1692.65 1178.92 1726.88 1147.11 1722.78 1143.06L1681.3 1172.76C1660.61 1165.6 1634.59 1163.65 1614.31 1157.84C1610.8 1156.82 1611.36 1150.48 1609.17 1150.45L1595.54 1154.31V1143.02C1577.21 1151.23 1558.2 1156.41 1537.76 1157.95C1420.92 1166.91 1269.7 1151.2 1153.02 1134.5C1123.53 1130.27 1077.95 1120.03 1060.01 1097.74L1029.37 1108.85L975.854 1036.19C976.651 1025.61 1039.77 1001.27 1030.57 993.167C1002.31 996.768 989.921 1025.69 962.983 1030.6C963.621 1010.16 946.088 989.829 961.11 970.811C1089.02 884.988 1218.57 799.053 1360.08 733.973L1356.77 697.101L1380.64 689.637L1348.8 683.56C1289.58 720.92 1222.44 746.314 1162.23 781.723C1115.44 809.256 1074.96 845.79 1025.23 868.896L696.196 552.95L692.889 542.297L708.111 523.318L662.644 483.332L629.131 514.803C632.797 524.218 651.367 529.394 654.993 535.958C658.978 543.198 650.769 549.987 654.515 558.277C657.424 564.691 675.674 575.419 680.536 582.846L664.676 588.36C673.961 590.01 689.98 608.953 688.067 615.742C684.561 628.345 632.797 659.891 628.334 677.858L600.998 672.682C609.366 679.096 616.26 693.913 628.733 687.799C651.407 659.779 685.716 637.46 702.413 607.115C710.901 617.505 732.14 627.07 727.717 641.886C725.366 649.763 667.824 697.814 656.667 710.154C652.363 714.881 646.346 715.706 650.689 723.283C655.352 731.46 658.858 721.332 661.488 718.444C678.464 699.839 696.236 680.934 714.328 667.168C722.417 661.016 728.354 647.588 740.269 653.74L863.282 770.621L805.9 824.56L781.473 805.955L766.091 816.833C757.723 816.758 704.844 759.593 692.69 751.19C687.27 747.439 684.361 744.251 676.591 745.789C698.229 762.781 732.259 808.806 753.937 820.884C770.913 830.374 774.658 816.27 781.433 817.283C788.924 818.408 796.336 838.401 809.048 835.25C814.786 833.825 864.836 787.35 863.92 776.059C865.832 774.521 873.563 775.384 876.671 776.397C884.92 779.098 992.352 881.875 990.678 889.564L931.184 925.536L945.291 903.256C931.184 892.228 874.161 808.205 862.286 809.893C850.809 819.609 819.608 832.362 824.35 847.966C826.542 855.205 843.876 863.533 843.916 874.748C828.853 886.301 806.936 893.653 805.9 914.284C767.605 899.167 777.567 884.688 767.047 857.193C758.679 835.325 725.804 817.095 708.31 800.103C695.718 787.8 632.04 731.348 628.852 726.921V738.174C621.122 739.562 615.662 736.786 608.968 734.423C607.414 742.976 611.996 745.864 616.778 751.415C640.926 779.585 682.17 815.407 710.303 843.202C720.783 853.555 738.595 857.306 736.244 876.811C735.647 877.524 726.641 872.197 724.688 870.884C632.717 808.768 545.967 701.302 453.877 635.097C433.594 610.941 442.878 598.675 473.323 613.041C515.682 632.997 552.064 700.814 597.053 726.921L585.138 700.702C593.028 699.277 598.209 701.865 605.023 704.415C606.537 695.901 602.034 692.975 597.212 687.423C578.404 665.63 554.574 647.025 537.479 623.807L553.299 623.882L531.462 610.716V618.143C525.644 615.442 521.141 605.839 517.515 603.214H525.405L529.39 584.459C521.022 587.61 515.961 594.586 517.515 603.214L517.356 603.326ZM287.15 334.08L412.593 262.661L449.374 306.023C450.21 311.574 431.8 322.227 427.098 325.303C415.582 332.88 325.962 384.868 319.746 385.469C310.222 386.369 282.966 340.869 287.15 334.08ZM338.355 423.466C341.503 411.05 321.3 399.46 328.154 389.632L457.662 312.887C474.717 311.311 471.051 319.189 461.368 327.628C429.768 355.086 384.102 373.653 354.255 406.624C349.075 412.363 350.111 425.229 338.355 423.504V423.466ZM215.023 311.049C220.562 311.086 226.739 310.149 232.079 311.837C240.487 314.5 291.652 385.919 299.224 398.484C304.045 406.474 327.755 447.698 322.376 453.437C314.924 454.899 312.772 449.948 308.787 445.672C284.798 419.903 247.66 365.213 227.656 334.718C225.265 331.079 212.792 312.887 215.023 311.086V311.049ZM183.184 367.239C137.518 370.84 157.841 328.266 191.114 326.053L187.129 340.982C199.961 339.969 208.887 341.507 207.054 356.023C213.43 357.561 224.786 363.113 222.953 370.99L202.75 372.678L199.084 386.031C202.272 362.85 240.447 375.904 238.853 397.247C224.866 394.208 226.062 410.9 210.919 406.962C199.562 403.998 197.689 396.271 199.084 386.031L175.215 382.243L183.145 367.276L183.184 367.239ZM561.109 427.217C570.036 436.445 531.342 469.866 523.253 475.83C510.741 485.02 448.138 519.679 435.427 520.879C403.388 523.88 377.606 474.817 358.917 454.637C366.648 440.796 368.401 427.292 379.957 415.777C409.405 386.369 457.822 362.925 491.494 337.193L497.471 342.82L374.458 433.331L431.681 505.951L561.149 427.217H561.109ZM258.777 438.433C267.026 437.345 273.123 437.682 278.343 444.397C299.184 471.254 232.597 487.908 246.863 449.686L223.033 457.15C233.035 440.796 218.171 417.052 241.921 412.813C259.255 409.7 268.58 423.729 258.817 438.433H258.777ZM101.614 430.968V434.719C99.0241 433.481 99.0241 432.206 101.614 430.968ZM105.559 438.508L111.497 444.097L109.624 445.86C107.432 443.459 101.614 440.983 105.559 438.508ZM322.416 535.883L298.267 534.27L294.562 517.091C252.322 525.981 255.072 488.396 290.457 477.405C314.486 469.941 307.273 501.112 311.178 505.275C314.486 508.801 340.348 510.152 326.401 532.132C331.74 530.894 340.268 532.995 346.285 532.132L342.619 541.697L350.111 543.423L350.23 548.899C335.008 553.25 337.279 565.441 334.331 569.567L345.568 568.93L348.317 558.127C367.684 555.764 381.153 566.679 370.155 584.571C379.997 583.596 391.832 587.009 396.295 595.899C398.088 599.5 390.836 613.904 390.039 614.542C407.333 594.399 403.189 612.141 408.09 618.143C412.115 623.094 421.002 619.455 417.893 629.471L386.094 644.512C390.358 635.097 378.284 632.209 378.045 631.384C373.86 617.43 385.377 624.294 389.202 621.331C391.633 619.418 389.521 615.179 390.079 614.542C388.047 616.192 367.804 619.53 366.21 618.255L370.155 603.326L354.295 607.04C353.418 601.376 355.291 596.837 358.24 592.073C341.424 592.373 333.454 585.884 334.37 569.605C334.171 569.905 329.628 568.63 327.516 570.73C324.847 573.431 329.11 584.384 320.503 580.783C312.653 577.482 314.326 564.954 314.446 558.352L302.571 562.103C296.713 555.539 317.235 539.109 322.416 535.883ZM684.441 592.148H692.371V595.824H684.441V592.148ZM171.27 637.123H179.199V640.799H171.27V637.123ZM155.37 655.803C151.306 652.052 163.14 640.761 167.245 644.587C171.349 648.413 159.475 659.629 155.37 655.803ZM302.531 865.633L390.159 785.062C406.218 778.047 421.679 796.877 437.778 798.303L407.971 834.8C397.012 833.375 385.098 811.619 374.578 817.433C372.227 835.4 335.207 853.405 340.348 869.234L354.215 884.388L302.531 865.633ZM358.28 888.177C377.885 887.464 358.08 907.007 352.223 910.57L358.28 888.177ZM342.34 929.4C341.264 922.423 342.34 916.384 350.23 914.396L354.175 931.313L342.34 929.4ZM884.521 1001.34C907.793 1007.91 912.136 1051.01 877.309 1053.26C825.306 1056.6 835.826 987.653 884.521 1001.34ZM1030.53 1165.49H1062.37C1055.59 1188.18 1081.45 1174.86 1078.23 1195.42C1051.33 1192.23 1029.21 1200.33 1030.49 1165.49H1030.53ZM1213.55 1217.96C1204.55 1217.1 1181.04 1221.75 1177.97 1211.89C1176.69 1207.72 1187.73 1161.14 1201.64 1174.94L1197.57 1187.96C1203.19 1192.53 1216.7 1171.6 1221.4 1176.78C1229.25 1185.41 1213.79 1193.28 1213.55 1194.3C1211.8 1201.42 1214.39 1210.46 1213.47 1218L1213.55 1217.96ZM1317 1176.74C1399.01 1181.35 1482.09 1190.02 1563.58 1176.74L1553.62 1233.01C1479.38 1214.74 1400.12 1208.29 1327.84 1183.3C1323.65 1181.88 1316.04 1182.03 1316.96 1176.78L1317 1176.74ZM1241.37 1184.2C1250.65 1187.02 1239.29 1186.46 1258.86 1188.26C1293.21 1191.41 1263.08 1248.46 1241.37 1214.18L1223.51 1221.75C1216.54 1222.43 1217.3 1221.86 1217.34 1215.94C1217.34 1204.95 1226.82 1179.74 1241.41 1184.2H1241.37ZM1316.96 1229.18C1314.53 1239.12 1320.78 1250.15 1301.06 1247.93C1307.99 1225.92 1279.34 1238.78 1286.71 1214.14C1292.57 1194.56 1326.84 1194.78 1320.94 1217.93C1328.87 1204.99 1350.83 1205.32 1353.06 1223.44C1356.57 1252.21 1325.57 1251.99 1316.96 1229.14V1229.18ZM1436.31 1259.15C1420.53 1273.67 1403.11 1263.39 1402.51 1244.18L1396.5 1266.65L1368.44 1265.04C1359.52 1260.61 1370.99 1223.55 1373.11 1222.13C1381.2 1216.76 1409.33 1225.73 1404.51 1240.39H1408.37C1406.5 1227.12 1425.99 1234.43 1436.31 1232.89V1259.15C1436.74 1254.84 1444.28 1244.97 1440.29 1236.68C1446.43 1234.21 1450.49 1240.17 1452.21 1240.43C1457.03 1241.18 1463.04 1239.83 1468.15 1240.43V1266.73H1476.07C1477.39 1260.31 1475.24 1261.7 1472.17 1253.9C1481.26 1242.42 1495.8 1243.21 1507.99 1250.03C1504.61 1265.11 1496.68 1297.3 1476.07 1274.23C1475 1275.32 1463.44 1271.42 1468.11 1289.23C1453.8 1291.15 1455.39 1277.15 1444.24 1277.98C1443.8 1277.98 1441.53 1283.46 1436.31 1281.73C1436.82 1274.38 1435.47 1266.54 1436.31 1259.26V1259.15ZM1539.75 1285.41C1535.81 1285.59 1525.09 1290.47 1523.85 1289.16L1523.77 1270.44L1519.83 1281.69C1496.8 1286.01 1513.97 1263.09 1511.98 1251.8L1539.16 1255.96L1539.71 1281.66L1543.7 1255.44L1556.05 1266.24L1571.55 1264.81C1563.98 1276.1 1563.9 1279.78 1567.53 1292.87C1556.69 1297.26 1555.81 1286.27 1553.66 1286.08C1552.07 1285.93 1540.47 1285.37 1539.71 1285.41H1539.75ZM1122.06 1266.69L1328.91 1319.13C1328.99 1322.05 1329.23 1324.98 1328.24 1327.87C1327.16 1330.94 1292.09 1378.32 1289.1 1380.98C1286.36 1383.42 1284.72 1387.13 1279.86 1386.08L1145.81 1291.03L1122.02 1266.65L1122.06 1266.69ZM1731.39 1297.41L1736.29 1296.88C1744.38 1303.11 1763.14 1309.53 1750.59 1321L1726.8 1326.44L1726.48 1315.75L1702.81 1315.34V1300.37C1704.73 1298.27 1731.39 1312.6 1731.39 1297.41ZM1937.6 1300.37C1938.84 1299.06 1956.89 1305.62 1960.6 1306.94C1965.58 1308.7 1971.23 1305.14 1969.4 1313.43C1949.2 1341.97 1941.23 1320.59 1913.69 1322.84V1311.63L1937.36 1311.21L1937.6 1300.37ZM1424.39 1337.88C1425.71 1343.51 1422.16 1346.1 1419.65 1350.26C1414.15 1359.38 1361.51 1427.76 1356.69 1429.82C1353.62 1431.13 1351.07 1432.48 1347.64 1431.13C1338.36 1419.5 1308.07 1414.4 1315.96 1398.91C1319.07 1392.84 1364.7 1334.02 1368.64 1332.14C1382.31 1325.73 1408.33 1339.53 1424.35 1337.88H1424.39ZM1958.64 1364.89C1987.09 1372.69 1974.58 1429.86 1931.9 1423.86C1889.23 1417.85 1902.18 1349.4 1958.64 1364.89ZM1806.9 1487.44C1804.51 1485.18 1805.34 1466.35 1810.05 1463.13C1844.91 1457.65 1827.18 1490.4 1838.1 1510.24C1818.81 1515.38 1821.8 1492.24 1817.22 1488.45C1815.07 1486.68 1808.13 1488.64 1806.86 1487.44H1806.9ZM1866.91 1505.7C1863.92 1500.19 1878.19 1473.89 1889.31 1480.8C1891.94 1487.66 1897.83 1493.17 1898.19 1501.01C1898.31 1503.79 1882.33 1515.53 1889.78 1529H1873.92C1873.17 1522.54 1875.36 1515.12 1873.88 1508.97C1873.21 1506.19 1867.27 1506.38 1866.91 1505.7ZM1834.16 1693.89C1823.28 1690.78 1828.97 1664.29 1832.48 1663.69L1877.63 1667.93L1877.95 1682.64H1862.01L1873.92 1701.35C1862.73 1701.35 1858.1 1694.98 1846.11 1693.89C1845.87 1706.42 1860.73 1706.83 1869.98 1708.93C1871.17 1710.51 1859.5 1744.87 1858.06 1746.37C1853.44 1751.28 1850.93 1749.14 1846.15 1750.12C1845.63 1750.23 1843.84 1754.47 1840.73 1753.61C1830.37 1745.28 1830.21 1738 1834.23 1727.61C1834.91 1725.85 1837.26 1720.97 1838.22 1720.11C1827.22 1711.26 1817.62 1703.38 1834.23 1693.89H1834.16ZM1821.64 1779.56C1822.12 1762.23 1835.31 1762.53 1850.29 1766.73L1854.04 1795.09L1806.46 1791.08L1806.26 1780.09L1821.68 1779.6L1821.64 1779.56ZM1819.21 1824.09C1801.96 1808.11 1836.35 1785.26 1852.13 1806.23L1848.02 1824.99L1842.09 1810.06L1838.14 1828.78C1832.32 1828.96 1823.44 1827.99 1819.25 1824.09H1819.21ZM1802.28 1843.78H1850.01L1854.04 1888.75L1819.17 1884.07L1815.27 1875.1C1814.83 1854.58 1830.73 1865.5 1838.1 1855.03H1802.28V1843.78ZM1818.14 1941.08C1795.58 1920.41 1813.79 1896.22 1843.24 1904.51C1865.99 1910.92 1850.61 1931.55 1857.51 1946.52L1834.16 1959.91L1861.97 1956.2V1967.41L1850.05 1971.13C1871.02 1974.76 1862.61 1989.62 1864.2 2001.51C1864.96 2007.32 1876.67 2018.84 1866.07 2025.63C1862.01 2028.22 1836.79 2030.8 1834.51 2027.02C1833.92 2016.36 1829.53 2006.01 1842.05 2003.05C1834.59 1997.87 1826.34 1995.24 1826.9 1984.85L1838.06 1974.91L1842.05 1989.88L1842.32 1973.49C1824.99 1970.9 1825.95 1955.07 1810.8 1955.82L1810.21 1943.52L1818.14 1941.08ZM1869.94 2057.4C1884.88 2064.19 1884.09 2079.08 1877.91 2091.12L1889.86 2102.34L1877.91 2106.05L1891.46 2109.61L1893.81 2117.3C1882.21 2116.25 1880.38 2117.49 1873.88 2124.8C1905.17 2117.56 1919.99 2149.37 1885.84 2156.87C1866.27 2161.19 1864.4 2141.68 1869.9 2128.55L1850.01 2124.77L1861.97 2109.84L1846.03 2107.89C1848.38 2093.26 1860.38 2096.67 1869.94 2094.8L1847.86 2083.58C1844.44 2077.32 1847.23 2067.19 1850.05 2061.07C1835.67 2061.71 1834.04 2039.43 1844.91 2035.61C1848.86 2034.22 1867.07 2031.07 1869.98 2032.72C1876.39 2039.32 1883.69 2052.33 1869.98 2057.32L1869.94 2057.4ZM1361.91 2148.1C1383.35 2154.21 1370.28 2193.03 1346.41 2195.92C1302.02 2201.32 1319.87 2136.09 1361.91 2148.1ZM2172.27 2836.85C2167.45 2838.24 2158.16 2835.95 2152.39 2836.85L2156.37 2818.17C2138.08 2822.98 2134.02 2806.96 2132.78 2792.18C2149.24 2787.08 2161.55 2777.25 2180.24 2780.66L2168.33 2795.59L2187.97 2799.68L2188.25 2810.64L2168.37 2818.14L2192 2814.5L2196.18 2829.39C2183.11 2823.54 2173.63 2836.52 2172.31 2836.89C2179.17 2829.47 2199.25 2831.87 2203.43 2843.34C2210.21 2861.87 2171.27 2876.54 2168.21 2853.7C2167.89 2851.22 2171.04 2838.24 2172.31 2836.89L2172.27 2836.85Z" fill="#E6E7EC"/>
</svg>
